HIERARCHY
ROOT Hips
{
	OFFSET	0.00	0.00	0.00
	CHANNELS 6 Xposition Yposition Zposition Zrotation Xrotation Yrotation
	JOINT LeftUpLeg
	{
		OFFSET	 0.126116	-0.014019	-0.065224
		CHANNELS 3 Zrotation Xrotation Yrotation
		JOINT LeftLeg
		{
			OFFSET	 0.000000	 0.000000	 0.569914
			CHANNELS 3 Zrotation Xrotation Yrotation
			JOINT LeftFoot
			{
				OFFSET	 0.000000	 0.000000	 0.544423
				CHANNELS 3 Zrotation Xrotation Yrotation
				JOINT LeftToeBase
				{
					OFFSET	 0.000000	 0.000000	 0.207117
					CHANNELS 3 Zrotation Xrotation Yrotation
					End Site
					{
						OFFSET	 0.000000	 0.000000	 0.207117
					}
				}
			}
		}
	}
	JOINT RightUpLeg
	{
		OFFSET	-0.124023	-0.008373	-0.065224
		CHANNELS 3 Zrotation Xrotation Yrotation
		JOINT RightLeg
		{
			OFFSET	 0.000000	 0.000000	 0.570047
			CHANNELS 3 Zrotation Xrotation Yrotation
			JOINT RightFoot
			{
				OFFSET	 0.000000	 0.000000	 0.544354
				CHANNELS 3 Zrotation Xrotation Yrotation
				JOINT RightToeBase
				{
					OFFSET	 0.000000	 0.000000	 0.207540
					CHANNELS 3 Zrotation Xrotation Yrotation
					End Site
					{
						OFFSET	 0.000000	 0.000000	 0.207540
					}
				}
			}
		}
	}
	JOINT Spine
	{
		OFFSET	 0.000184	-0.007763	 0.117403
		CHANNELS 3 Zrotation Xrotation Yrotation
		JOINT Spine1
		{
			OFFSET	 0.000000	 0.000000	 0.137269
			CHANNELS 3 Zrotation Xrotation Yrotation
			JOINT Spine2
			{
				OFFSET	 0.000000	 0.000000	 0.156879
				CHANNELS 3 Zrotation Xrotation Yrotation
				JOINT LeftShoulder
				{
					OFFSET	 0.080501	-0.002496	 0.160144
					CHANNELS 3 Zrotation Xrotation Yrotation
					JOINT LeftArm
					{
						OFFSET	 0.000000	 0.000000	 0.164363
						CHANNELS 3 Zrotation Xrotation Yrotation
						JOINT LeftForeArm
						{
							OFFSET	 0.000000	 0.000000	 0.364576
							CHANNELS 3 Zrotation Xrotation Yrotation
							JOINT LeftHand
							{
								OFFSET	 0.000000	 0.000000	 0.360812
								CHANNELS 3 Zrotation Xrotation Yrotation
								JOINT LeftHandIndex1
								{
									OFFSET	 0.000000	 0.000000	 0.086006
									CHANNELS 3 Zrotation Xrotation Yrotation
									JOINT LeftHandIndex2
									{
										OFFSET	 0.000000	 0.000000	 0.047237
										CHANNELS 3 Zrotation Xrotation Yrotation
										JOINT LeftHandIndex3
										{
											OFFSET	-0.004284	-0.000551	 0.038165
											CHANNELS 3 Zrotation Xrotation Yrotation
											End Site
											{
												OFFSET	-0.004284	-0.000551	 0.038165
											}
										}
									}
								}
							}
						}
					}
				}
				JOINT Neck
				{
					OFFSET	 0.000000	 0.000000	 0.176489
					CHANNELS 3 Zrotation Xrotation Yrotation
					JOINT Head
					{
						OFFSET	 0.000000	-0.001747	 0.077940
						CHANNELS 3 Zrotation Xrotation Yrotation
						End Site
						{
							OFFSET	 0.000000	-0.001747	 0.077940
						}
					}
				}
				JOINT RightShoulder
				{
					OFFSET	-0.080363	 0.000306	 0.159706
					CHANNELS 3 Zrotation Xrotation Yrotation
					JOINT RightArm
					{
						OFFSET	 0.000000	 0.000000	 0.164196
						CHANNELS 3 Zrotation Xrotation Yrotation
						JOINT RightForeArm
						{
							OFFSET	 0.000000	 0.000000	 0.365611
							CHANNELS 3 Zrotation Xrotation Yrotation
							JOINT RightHand
							{
								OFFSET	 0.000000	 0.000000	 0.360648
								CHANNELS 3 Zrotation Xrotation Yrotation
								JOINT RightHandIndex1
								{
									OFFSET	 0.000000	 0.000000	 0.069977
									CHANNELS 3 Zrotation Xrotation Yrotation
									JOINT RightHandIndex2
									{
										OFFSET	 0.000000	 0.000000	 0.052305
										CHANNELS 3 Zrotation Xrotation Yrotation
										JOINT RightHandIndex3
										{
											OFFSET	 0.009002	-0.000782	 0.042196
											CHANNELS 3 Zrotation Xrotation Yrotation
											End Site
											{
												OFFSET	 0.009002	-0.000782	 0.042196
											}
										}
									}
								}
							}
						}
					}
				}
			}
		}
	}
}
MOTION
Frames:    8
Frame Time: 0.03333334
-0.644034	-0.127571	 1.248577	-161.306800	 8.493234	 9.817364	 15.601070	-17.455170	 163.524900	-9.095313	-32.197960	-3.820378	-76.613490	 77.003800	 73.633450	-2.385833	 28.452760	 0.000004	-3.288633	-51.814670	 173.592000	-28.443100	-58.650710	-15.107980	 27.807590	 36.209960	-36.533310	 2.384659	 28.388700	-0.000001	 63.790870	-19.767020	-15.805540	 45.595370	 26.688960	 2.624639	-3.973799	-3.686239	-6.128575	-91.776180	 78.527420	-180.000000	 8.499118	 16.195390	-50.375630	-15.148910	 0.285722	-2.107634	 7.927524	-3.198632	-4.222536	-4.131196	 21.524690	 0.986298	-5.167839	 0.733520	 3.519257	-1.378229	 35.397820	-2.634230	-14.032990	 16.438660	-7.741199	-25.054640	 3.666427	 5.358632	 89.782100	 78.203870	 180.000000	 5.394543	 57.192650	-0.574471	 4.828423	 0.219694	 2.183640	 92.688890	-15.119700	-4.896440	 5.715225	 19.176060	-3.692089	 5.027514	 0.245388	-9.378011	-2.350882	 35.473990	 5.254307
-0.643791	-0.126986	 1.248853	-161.548800	 8.470069	 10.039600	 15.921970	-17.503350	 163.297400	-8.957546	-32.165200	-3.742782	-78.757030	 77.605370	 75.443540	-2.385833	 28.452760	 0.000004	-2.442674	-51.745300	 173.687200	-26.138110	-58.837110	-13.121020	 33.747410	 41.020050	-39.269890	 2.384659	 28.388700	-0.000001	 63.604780	-20.467710	-16.458210	 45.861870	 27.805690	 2.295414	-3.992908	-4.074156	-6.079895	-91.776160	 78.527430	 180.000000	 8.459361	 16.256890	-50.391970	-14.883200	 0.283543	-2.108136	 8.250507	-2.983893	-4.334450	-4.131196	 21.524690	 0.986298	-5.167839	 0.733520	 3.519257	-1.378229	 35.397820	-2.634230	-13.976200	 16.370950	-7.899232	-25.094230	 3.568465	 5.264125	 89.782070	 78.203900	-180.000000	 5.514452	 57.195400	-0.649644	 4.412814	 0.215498	 2.184618	 92.541940	-14.660190	-4.049051	 5.715225	 19.176060	-3.692089	 5.027514	 0.245388	-9.378011	-2.350882	 35.473990	 5.254307
-0.643646	-0.125964	 1.249313	-161.700200	 8.232191	 9.899423	 16.784400	-17.198000	 163.402700	-8.799466	-31.874030	-3.628225	-85.948500	 78.520350	 82.207530	-2.385833	 28.452760	 0.000004	-2.576204	-51.439800	 173.814600	-23.625860	-59.063650	-10.962490	 39.185800	 44.903630	-42.251910	 2.384659	 28.388700	-0.000001	 63.307370	-21.329220	-17.071720	 46.293580	 29.803490	 1.338357	-4.062166	-4.960937	-5.712626	-91.776170	 78.527420	-180.000000	 8.219079	 16.479850	-50.352730	-14.524300	 0.280226	-2.105441	 8.500286	-2.841652	-4.438313	-4.131196	 21.524690	 0.986298	-5.167839	 0.733520	 3.519257	-1.378229	 35.397820	-2.634230	-14.006800	 16.262320	-7.779390	-25.095550	 3.528770	 5.052710	 89.782100	 78.203890	 180.000000	 5.646905	 57.275650	-0.690900	 3.795969	 0.210306	 2.179147	 92.717800	-13.237690	-2.448289	 5.715225	 19.176060	-3.692089	 5.027514	 0.245388	-9.378011	-2.350882	 35.473990	 5.254307
-0.642923	-0.124997	 1.249599	-162.135600	 8.220348	 9.923112	 17.832730	-17.234430	 163.416900	-8.489293	-31.689900	-3.444927	-92.658460	 79.041920	 88.438730	-2.385833	 28.452760	 0.000004	-3.446506	-51.369180	 173.371400	-21.348850	-59.077090	-8.989605	 43.147330	 48.005730	-44.181590	 2.384659	 28.388700	-0.000001	 63.473690	-21.729070	-17.468840	 46.446240	 30.663350	 1.284361	-4.082512	-5.252291	-5.674132	-91.776170	 78.527380	-180.000000	 8.046755	 16.575710	-50.345080	-14.118480	 0.276405	-2.102680	 8.767777	-2.688432	-4.552378	-4.131196	 21.524690	 0.986298	-5.167839	 0.733520	 3.519257	-1.378229	 35.397820	-2.634230	-14.021940	 16.276940	-7.701925	-25.079170	 3.438866	 4.873108	 89.782140	 78.203920	 180.000000	 5.772791	 57.403670	-0.720682	 3.086892	 0.203683	 2.173028	 92.332950	-12.635630	-1.110499	 5.715225	 19.176060	-3.692089	 5.027514	 0.245388	-9.378011	-2.350882	 35.473990	 5.254307
-0.641477	-0.124326	 1.249565	-162.986600	 8.542315	 10.228700	 19.045010	-17.806150	 163.281700	-7.957571	-31.719620	-3.165815	-96.713820	 79.133960	 91.907520	-2.385833	 28.452760	 0.000004	-4.713564	-51.655140	 172.310600	-19.758750	-58.819640	-7.594924	 43.921520	 49.980080	-43.491340	 2.384659	 28.388700	-0.000001	 64.369640	-21.405910	-17.573740	 46.105680	 29.811620	 2.694985	-4.036772	-4.644362	-6.150090	-91.776230	 78.527400	-179.999900	 8.008239	 16.439130	-50.397460	-13.679090	 0.271717	-2.097453	 9.034496	-2.533364	-4.672073	-4.131196	 21.524690	 0.986298	-5.167839	 0.733520	 3.519257	-1.378229	 35.397820	-2.634230	-14.010460	 16.492280	-7.702025	-25.035190	 3.275729	 4.765071	 89.782010	 78.203830	-179.999900	 5.767918	 57.598270	-0.638266	 2.303851	 0.195570	 2.169178	 91.128010	-13.410820	-0.403423	 5.715225	 19.176060	-3.692089	 5.027514	 0.245388	-9.378011	-2.350882	 35.473990	 5.254307
-0.639931	-0.123222	 1.249541	-163.616300	 8.839790	 10.228710	 20.030730	-18.093770	 163.432900	-7.274606	-31.582730	-2.793362	-105.413900	 79.545300	 99.749330	-2.385833	 28.452760	 0.000004	-4.792752	-51.894030	 172.212800	-18.665090	-58.578740	-6.637137	 45.716000	 51.679600	-44.128210	 2.384659	 28.388700	-0.000001	 65.074510	-21.303450	-17.379920	 45.910690	 29.403970	 3.562475	-3.988100	-4.300272	-6.555565	-91.776200	 78.527420	-180.000000	 7.946940	 16.387950	-50.458700	-13.289420	 0.267579	-2.092789	 9.277630	-2.380188	-4.784345	-4.131196	 21.524690	 0.986298	-5.167839	 0.733520	 3.519257	-1.378229	 35.397820	-2.634230	-13.962120	 16.717410	-7.739432	-24.986760	 3.180978	 4.852909	 89.782030	 78.203850	-180.000000	 5.597354	 57.728900	-0.362480	 1.598259	 0.187988	 2.162762	 90.082810	-13.863040	 0.371481	 5.715225	 19.176060	-3.692089	 5.027514	 0.245388	-9.378011	-2.350882	 35.473990	 5.254307
-0.638215	-0.121429	 1.249548	-163.957800	 9.154962	 9.736275	 20.813630	-17.989750	 164.056800	-6.372347	-31.166870	-2.290946	-123.362200	 79.959050	 116.478400	-2.385833	 28.452760	 0.000004	-3.029403	-52.134580	 173.646400	-18.209150	-58.391900	-6.233869	 49.421630	 52.940480	-46.943750	 2.384659	 28.388700	-0.000001	 65.545120	-21.593140	-16.708100	 45.901250	 29.731370	 3.648915	-3.946085	-4.368975	-6.878947	-91.776250	 78.527420	-179.999900	 7.857063	 16.444150	-50.543820	-12.939280	 0.262411	-2.082758	 9.514223	-2.219222	-4.899581	-4.131196	 21.524690	 0.986298	-5.167839	 0.733520	 3.519257	-1.378229	 35.397820	-2.634230	-13.850150	 16.981930	-7.840296	-24.926320	 3.184582	 5.257240	 89.782150	 78.203900	 180.000000	 5.167885	 57.774880	 0.222517	 0.942205	 0.179977	 2.155893	 89.187470	-13.878440	 1.410402	 5.715225	 19.176060	-3.692089	 5.027514	 0.245388	-9.378011	-2.350882	 35.473990	 5.254307
-0.636513	-0.119205	 1.249595	-163.954500	 9.317193	 8.884439	 21.373240	-17.430080	 164.932400	-5.562202	-30.512200	-1.834722	-143.239500	 79.502910	 135.316100	-2.385833	 28.452760	 0.000004	-0.336721	-52.109460	 176.033500	-17.987560	-58.297130	-6.038227	 54.272670	 53.662970	-51.134120	 2.384659	 28.388700	-0.000001	 65.736470	-22.032100	-15.752590	 46.042580	 30.602440	 2.937987	-3.911004	-4.829280	-6.914079	-91.776210	 78.527400	-180.000000	 7.746825	 16.574330	-50.614320	-12.643840	 0.257969	-2.074711	 9.723457	-2.068231	-5.003988	-4.131196	 21.524690	 0.986298	-5.167839	 0.733520	 3.519257	-1.378229	 35.397820	-2.634230	-13.691940	 17.129750	-7.974973	-24.882220	 3.301758	 5.845455	 89.782110	 78.203890	 180.000000	 4.669682	 57.780560	 0.888658	 0.479721	 0.174314	 2.143877	 88.668540	-13.732230	 2.744786	 5.715225	 19.176060	-3.692089	 5.027514	 0.245388	-9.378011	-2.350882	 35.473990	 5.254307
